<svg width="162" height="48" viewBox="0 0 162 48" fill="none" xmlns="http://www.w3.org/2000/svg">
<g clip-path="url(#clip0_70_80)">
<rect width="48" height="48" rx="22.5" fill="#5F49A2"/>
<path d="M12 19.5C12 19.5 12 22.5 12 28.5C12 34.5 18 34.5 18 34.5" stroke="white" stroke-width="3" stroke-linecap="round" stroke-linejoin="round"/>
<path d="M36 21L36 31.5" stroke="white" stroke-width="3" stroke-linecap="round" stroke-linejoin="round"/>
<path d="M18 13.5V34.5" stroke="white" stroke-width="3" stroke-linecap="round" stroke-linejoin="round"/>
<path d="M30 13.5V37.5" stroke="white" stroke-width="3" stroke-linecap="round" stroke-linejoin="round"/>
<path d="M24 7.5V37.5C24 37.5 24 40.5 27 40.5C30 40.5 30 37.5 30 37.5" stroke="white" stroke-width="3" stroke-linecap="round" stroke-linejoin="round"/>
<circle cx="36" cy="16.5" r="0.75" fill="white" stroke="white" stroke-width="1.5"/>
<path d="M65.0866 32.601C64.8966 32.753 64.5926 32.8955 64.1746 33.0285C63.7566 33.1615 63.3006 33.228 62.8066 33.228C62.2366 33.228 61.7236 33.1425 61.2676 32.9715C60.8306 32.7815 60.5361 32.5345 60.3841 32.2305C60.0991 31.6605 59.7666 30.91 59.3866 29.979C59.0066 29.048 58.5981 28.003 58.1611 26.844C57.7241 25.685 57.2871 24.4975 56.8501 23.2815C56.4131 22.0465 56.0046 20.84 55.6246 19.662C55.2636 18.465 54.9501 17.382 54.6841 16.413C54.8741 16.204 55.1496 16.014 55.5106 15.843C55.8906 15.672 56.2991 15.5865 56.7361 15.5865C57.2681 15.5865 57.6861 15.71 57.9901 15.957C58.3131 16.185 58.5601 16.584 58.7311 17.154C59.3961 19.301 60.0516 21.3815 60.6976 23.3955C61.3436 25.4095 62.0371 27.4615 62.7781 29.5515H62.9206C63.3766 28.2405 63.8326 26.8345 64.2886 25.3335C64.7636 23.8135 65.2291 22.265 65.6851 20.688C66.1411 19.092 66.5591 17.5245 66.9391 15.9855C67.1861 15.8525 67.4521 15.7575 67.7371 15.7005C68.0221 15.6245 68.3356 15.5865 68.6776 15.5865C69.2096 15.5865 69.6466 15.71 69.9886 15.957C70.3496 16.185 70.5301 16.5745 70.5301 17.1255C70.5301 17.4675 70.4256 18.0375 70.2166 18.8355C70.0266 19.6145 69.7606 20.5265 69.4186 21.5715C69.0956 22.5975 68.7251 23.6805 68.3071 24.8205C67.9081 25.9415 67.4996 27.0245 67.0816 28.0695C66.6826 29.1145 66.3026 30.036 65.9416 30.834C65.5996 31.632 65.3146 32.221 65.0866 32.601Z" fill="#5F49A2"/>
<path d="M79.0053 33.456C77.4853 33.456 76.1838 33.1805 75.1008 32.6295C74.0368 32.0785 73.2198 31.309 72.6498 30.321C72.0798 29.314 71.7948 28.155 71.7948 26.844V24.8205H75.4713V26.7015C75.4713 27.8985 75.8038 28.82 76.4688 29.466C77.1528 30.093 77.9983 30.4065 79.0053 30.4065C80.0313 30.4065 80.8768 30.093 81.5418 29.466C82.2068 28.82 82.5393 27.8985 82.5393 26.7015V24.8205H86.2443V26.844C86.2443 28.155 85.9593 29.314 85.3893 30.321C84.8193 31.309 83.9928 32.0785 82.9098 32.6295C81.8268 33.1805 80.5253 33.456 79.0053 33.456ZM75.4713 25.761H71.7948V15.7005C71.9468 15.6625 72.1843 15.615 72.5073 15.558C72.8493 15.501 73.1818 15.4725 73.5048 15.4725C74.1888 15.4725 74.6828 15.596 74.9868 15.843C75.3098 16.09 75.4713 16.546 75.4713 17.211V25.761ZM86.2443 25.7895H82.5393V15.7005C82.7103 15.6625 82.9573 15.615 83.2803 15.558C83.6033 15.501 83.9263 15.4725 84.2493 15.4725C84.9523 15.4725 85.4558 15.596 85.7598 15.843C86.0828 16.09 86.2443 16.546 86.2443 17.211V25.7895Z" fill="#5F49A2"/>
<path d="M87.7951 21.486H91.5001V32.9715C91.3481 33.0095 91.1106 33.057 90.7876 33.114C90.4646 33.171 90.1321 33.1995 89.7901 33.1995C89.0681 33.1995 88.5551 33.0665 88.2511 32.8005C87.9471 32.5345 87.7951 32.088 87.7951 31.461V21.486ZM91.5001 25.818H87.7951V15.7005C87.9661 15.6625 88.2131 15.615 88.5361 15.558C88.8591 15.501 89.1821 15.4725 89.5051 15.4725C90.2081 15.4725 90.7116 15.596 91.0156 15.843C91.3386 16.09 91.5001 16.546 91.5001 17.211V25.818Z" fill="#5F49A2"/>
<path d="M113.127 24.5925V30.606C113.127 31.081 113.023 31.4515 112.814 31.7175C112.605 31.9645 112.291 32.202 111.873 32.43C111.36 32.715 110.638 32.9525 109.707 33.1425C108.776 33.3515 107.845 33.456 106.914 33.456C105.128 33.456 103.513 33.1425 102.069 32.5155C100.644 31.8695 99.5235 30.8815 98.7065 29.5515C97.8895 28.2025 97.481 26.483 97.481 24.393C97.481 22.379 97.899 20.6975 98.735 19.3485C99.571 17.9805 100.692 16.9545 102.098 16.2705C103.504 15.5865 105.062 15.2445 106.772 15.2445C107.912 15.2445 108.909 15.368 109.764 15.615C110.619 15.843 111.275 16.166 111.731 16.584C112.206 16.983 112.443 17.4295 112.443 17.9235C112.443 18.3035 112.339 18.636 112.13 18.921C111.94 19.206 111.702 19.4245 111.417 19.5765C110.923 19.2725 110.315 18.978 109.593 18.693C108.89 18.408 108.035 18.2655 107.028 18.2655C105.926 18.2655 104.938 18.503 104.064 18.978C103.209 19.453 102.535 20.1465 102.041 21.0585C101.547 21.9705 101.3 23.0725 101.3 24.3645C101.3 25.7515 101.547 26.8915 102.041 27.7845C102.535 28.6775 103.209 29.3425 104.064 29.7795C104.919 30.2165 105.888 30.435 106.971 30.435C107.522 30.435 108.026 30.3875 108.482 30.2925C108.938 30.1785 109.289 30.0645 109.536 29.9505V26.0175H105.888C105.793 25.8465 105.708 25.6375 105.632 25.3905C105.556 25.1435 105.518 24.868 105.518 24.564C105.518 24.07 105.632 23.6995 105.86 23.4525C106.107 23.2055 106.42 23.082 106.8 23.082H111.588C112.063 23.082 112.434 23.215 112.7 23.481C112.985 23.747 113.127 24.1175 113.127 24.5925Z" fill="#5F49A2"/>
<path d="M114.75 27.8415V25.6185H118.37V27.7845C118.37 28.7535 118.626 29.4565 119.139 29.8935C119.652 30.3305 120.365 30.549 121.277 30.549C121.866 30.549 122.36 30.492 122.759 30.378C123.177 30.264 123.49 30.1405 123.699 30.0075V25.6185H127.29V30.3495C127.29 30.7865 127.214 31.157 127.062 31.461C126.91 31.746 126.635 32.0025 126.236 32.2305C125.704 32.5725 125.01 32.8575 124.155 33.0855C123.3 33.3135 122.331 33.4275 121.248 33.4275C119.937 33.4275 118.788 33.228 117.8 32.829C116.831 32.43 116.08 31.822 115.548 31.005C115.016 30.188 114.75 29.1335 114.75 27.8415ZM127.29 26.958H123.699V19.548C123.851 19.491 124.07 19.4435 124.355 19.4055C124.659 19.3485 124.982 19.32 125.324 19.32C126.027 19.32 126.53 19.4435 126.834 19.6905C127.138 19.9185 127.29 20.3555 127.29 21.0015V26.958ZM118.37 26.958H114.75V19.548C114.902 19.491 115.13 19.4435 115.434 19.4055C115.738 19.3485 116.061 19.32 116.403 19.32C117.087 19.32 117.581 19.4435 117.885 19.6905C118.208 19.9185 118.37 20.3555 118.37 21.0015V26.958Z" fill="#5F49A2"/>
<path d="M128.472 15.4725C128.472 14.9025 128.662 14.4275 129.042 14.0475C129.441 13.6675 129.945 13.4775 130.553 13.4775C131.161 13.4775 131.655 13.6675 132.035 14.0475C132.434 14.4275 132.633 14.9025 132.633 15.4725C132.633 16.0425 132.434 16.527 132.035 16.926C131.655 17.306 131.161 17.496 130.553 17.496C129.945 17.496 129.441 17.306 129.042 16.926C128.662 16.527 128.472 16.0425 128.472 15.4725ZM128.757 25.476H132.348V32.9715C132.196 33.0095 131.968 33.057 131.664 33.114C131.379 33.171 131.066 33.1995 130.724 33.1995C130.04 33.1995 129.536 33.076 129.213 32.829C128.909 32.582 128.757 32.145 128.757 31.518V25.476ZM132.348 27.3285H128.757V19.605C128.909 19.567 129.128 19.5195 129.413 19.4625C129.717 19.4055 130.04 19.377 130.382 19.377C131.066 19.377 131.56 19.5005 131.864 19.7475C132.187 19.9755 132.348 20.4125 132.348 21.0585V27.3285Z" fill="#5F49A2"/>
<path d="M143.284 29.979V21.087L146.875 21.0585V30.378C146.875 30.796 146.78 31.1475 146.59 31.4325C146.419 31.7175 146.134 31.974 145.735 32.202C145.279 32.506 144.652 32.7815 143.854 33.0285C143.056 33.2945 142.154 33.4275 141.147 33.4275C139.627 33.4275 138.306 33.171 137.185 32.658C136.083 32.126 135.228 31.3375 134.62 30.2925C134.012 29.2285 133.708 27.8985 133.708 26.3025C133.708 24.6305 134.012 23.272 134.62 22.227C135.228 21.163 136.055 20.3745 137.1 19.8615C138.164 19.3485 139.332 19.092 140.605 19.092C141.308 19.092 141.945 19.1775 142.515 19.3485C143.104 19.5005 143.569 19.7 143.911 19.947V22.9965C143.607 22.7305 143.218 22.493 142.743 22.284C142.268 22.056 141.707 21.942 141.061 21.942C140.358 21.942 139.722 22.094 139.152 22.398C138.601 22.702 138.164 23.177 137.841 23.823C137.518 24.45 137.356 25.286 137.356 26.331C137.356 27.775 137.689 28.839 138.354 29.523C139.038 30.188 139.959 30.5205 141.118 30.5205C141.612 30.5205 142.03 30.4635 142.372 30.3495C142.733 30.2355 143.037 30.112 143.284 29.979ZM146.875 21.828H143.284V14.475C143.436 14.418 143.655 14.3705 143.94 14.3325C144.244 14.2755 144.567 14.247 144.909 14.247C145.593 14.247 146.087 14.3705 146.391 14.6175C146.714 14.8455 146.875 15.2825 146.875 15.9285V21.828Z" fill="#5F49A2"/>
<path d="M150.449 28.0695L150.278 25.533L157.859 24.4215C157.802 23.7185 157.526 23.1105 157.032 22.5975C156.538 22.0655 155.835 21.7995 154.923 21.7995C153.954 21.7995 153.156 22.132 152.529 22.797C151.902 23.462 151.579 24.412 151.56 25.647L151.646 27.186C151.798 28.364 152.254 29.238 153.014 29.808C153.793 30.359 154.762 30.6345 155.921 30.6345C156.719 30.6345 157.46 30.5205 158.144 30.2925C158.828 30.0455 159.369 29.789 159.768 29.523C160.034 29.675 160.253 29.884 160.424 30.15C160.595 30.416 160.68 30.701 160.68 31.005C160.68 31.499 160.462 31.936 160.025 32.316C159.588 32.677 158.989 32.9525 158.229 33.1425C157.488 33.3325 156.643 33.4275 155.693 33.4275C154.211 33.4275 152.9 33.152 151.76 32.601C150.639 32.05 149.755 31.233 149.109 30.15C148.482 29.048 148.169 27.699 148.169 26.103C148.169 24.925 148.349 23.899 148.71 23.025C149.071 22.132 149.565 21.4005 150.192 20.8305C150.819 20.2415 151.532 19.8045 152.33 19.5195C153.147 19.2345 154.011 19.092 154.923 19.092C156.177 19.092 157.279 19.3485 158.229 19.8615C159.179 20.3555 159.92 21.049 160.452 21.942C160.984 22.835 161.25 23.861 161.25 25.02C161.25 25.552 161.108 25.951 160.823 26.217C160.557 26.483 160.177 26.654 159.683 26.73L150.449 28.0695Z" fill="#5F49A2"/>
</g>
<defs>
<clipPath id="clip0_70_80">
<rect width="162" height="48" fill="white"/>
</clipPath>
</defs>
</svg>
