<svg enable-background="new 0 0 68 24" viewBox="0 0 68 24" xmlns="http://www.w3.org/2000/svg" xmlns:xlink="http://www.w3.org/1999/xlink"><linearGradient id="a"><stop offset="0" stop-color="#b721ff"/><stop offset="1" stop-color="#0b2750"/></linearGradient><linearGradient id="b" gradientUnits="userSpaceOnUse" x1="21" x2="21" xlink:href="#a" y1="11" y2="13"/><linearGradient id="c" gradientUnits="userSpaceOnUse" x1="17" x2="17" xlink:href="#a" y1="11" y2="16"/><linearGradient id="d" gradientUnits="userSpaceOnUse" x1="3" x2="3" xlink:href="#a" y1="4" y2="20"/><linearGradient id="e" gradientUnits="userSpaceOnUse" x1="11" x2="11" xlink:href="#a" y1="0" y2="24"/><linearGradient id="f" gradientUnits="userSpaceOnUse" x1="17" x2="17" xlink:href="#a" y1="8" y2="10"/><circle cx="21" cy="12" fill="url(#b)" r="1"/><path d="m17 11c-.6 0-1 .4-1 1v3c0 .6.4 1 1 1s1-.4 1-1v-3c0-.6-.4-1-1-1z" fill="url(#c)"/><path d="m5 4c-.6 0-1 .4-1 1v12.8c-.9-.3-2-1-2-2.8v-6c0-.6-.4-1-1-1s-1 .4-1 1v6c0 4 3.3 5 5 5 .1 0 .3 0 .4-.1.3-.1.6-.5.6-.9v-14c0-.6-.4-1-1-1z" fill="url(#d)"/><path d="m13 4c-.6 0-1 .4-1 1v16c0 .5-.2 1-1 1s-1-.5-1-1v-20c0-.6-.4-1-1-1s-1 .4-1 1v20c0 1.2.8 3 3 3s3-1.8 3-3v-16c0-.6-.4-1-1-1z" fill="url(#e)"/><circle cx="17" cy="9" fill="url(#f)" r="1"/><g fill="#0b2750"><path d="m30.9 7.6c-.7-.4-1.4-.6-2.3-.6s-1.7.2-2.4.6-1.2.9-1.6 1.6-.6 1.5-.6 2.4.2 1.7.5 2.4c.4.7.9 1.2 1.5 1.6s1.4.6 2.2.6c.7 0 1.4-.2 1.9-.5.4-.3.8-.6 1.1-1v.3c0 .7-.1 1.2-.4 1.7-.2.5-.6.8-1 1s-.8.3-1.3.3-1-.1-1.4-.3-.8-.5-1-.8c-.2-.2-.4-.3-.6-.4s-.5 0-.7.2c-.2.1-.3.3-.4.6 0 .2 0 .5.2.7.5.6 1.1 1.1 1.7 1.4.7.3 1.4.5 2.2.5.9 0 1.7-.2 2.4-.6s1.2-1 1.6-1.7.6-1.5.6-2.4v-3.5c0-.9-.2-1.7-.6-2.4-.3-.8-.9-1.3-1.6-1.7zm-3.7 1.5c.4-.2.9-.4 1.4-.4s1 .1 1.4.4.7.6.9 1 .3.9.3 1.5-.1 1.1-.3 1.5-.5.8-.9 1-.9.4-1.4.4-1-.1-1.4-.4c-.4-.2-.7-.6-1-1-.2-.4-.3-.9-.3-1.5s.1-1.1.3-1.5c.3-.4.6-.7 1-1z"/><path d="m42.4 7.1c-.3 0-.5.1-.7.3s-.3.4-.3.7v4.5c0 .4-.1.7-.3.9-.2.3-.5.5-.8.7s-.7.3-1.1.3c-.7 0-1.3-.2-1.7-.6s-.7-1-.7-1.9v-3.9c0-.3-.1-.5-.3-.7s-.4-.3-.7-.3-.5.1-.7.3-.3.4-.3.7v3.9c0 .9.2 1.7.5 2.3.4.6.8 1.1 1.4 1.5.6.3 1.3.5 2.1.5.6 0 1.1-.1 1.6-.3.4-.2.7-.3 1-.6 0 .2.1.4.3.5.2.2.4.3.7.3s.5-.1.7-.3.3-.4.3-.7v-7.1c0-.3-.1-.5-.3-.7s-.5-.3-.7-.3z"/><circle cx="46.1" cy="5.1" r="1"/><path d="m46.1 7.1c-.3 0-.5.1-.7.3s-.3.4-.3.7v7.1c0 .3.1.5.3.7s.4.3.7.3.5-.1.7-.3.3-.4.3-.7v-7.1c0-.3-.1-.5-.3-.7s-.4-.3-.7-.3z"/><path d="m56.8 3.3c-.3 0-.5.1-.7.3s-.3.4-.3.7v3.9c-.3-.3-.7-.6-1.1-.8-.5-.3-1.1-.4-1.8-.4-.8 0-1.5.2-2.2.6-.6.4-1.2 1-1.5 1.6-.4.7-.5 1.5-.5 2.3 0 .9.2 1.7.6 2.4s1 1.2 1.6 1.7c.7.4 1.5.6 2.3.6.9 0 1.6-.2 2.3-.6s1.2-1 1.6-1.7.6-1.5.6-2.4v-7.2c0-.3-.1-.5-.3-.7s-.3-.3-.6-.3zm-.9 8.3c0 .5-.1 1-.3 1.5-.2.4-.6.8-1 1s-.9.4-1.4.4-1-.1-1.4-.4-.7-.6-1-1c-.2-.4-.3-.9-.3-1.5 0-.5.1-1 .3-1.5.2-.4.6-.8 1-1s.9-.4 1.4-.4 1 .1 1.4.4c.4.2.7.6 1 1 .2.4.3.9.3 1.5z"/><path d="m67.7 12.1c.2-.2.3-.4.3-.6 0-.9-.2-1.6-.5-2.3s-.8-1.2-1.4-1.6-1.4-.6-2.2-.6c-.9 0-1.6.2-2.3.6s-1.2.9-1.6 1.6-.6 1.5-.6 2.4.2 1.7.6 2.4 1 1.2 1.7 1.6 1.5.6 2.4.6c.5 0 1-.1 1.6-.3s1-.4 1.4-.7c.2-.2.3-.4.3-.6s-.1-.5-.3-.6-.3-.2-.5-.2-.5.1-.7.2-.5.3-.8.4-.6.2-1 .2c-.8 0-1.4-.2-2-.7-.5-.4-.8-.9-.9-1.5h5.9c.3-.1.5-.2.6-.3zm-1.5-1.4h-4.9c.1-.6.4-1 .8-1.4s1.1-.6 1.8-.6 1.2.2 1.6.6c.3.4.6.9.7 1.4z"/></g></svg>