<?xml version="1.0" encoding="utf-8"?>
<!-- Generator: Adobe Illustrator 24.0.0, SVG Export Plug-In . SVG Version: 6.00 Build 0)  -->
<svg version="1.1" id="vuiLogo" focusable="false" xmlns="http://www.w3.org/2000/svg" xmlns:xlink="http://www.w3.org/1999/xlink"
	 x="0px" y="0px" viewBox="0 0 22 24" style="enable-background:new 0 0 22 24;" xml:space="preserve">
<style type="text/css">
	.st0{fill:url(#SVGID_1_);}
	.st1{fill:url(#SVGID_2_);}
	.st2{fill:url(#SVGID_3_);}
	.st3{fill:url(#SVGID_4_);}
	.st4{fill:url(#SVGID_5_);}
</style>
<title>vui.guide</title>
<linearGradient id="SVGID_1_" gradientUnits="userSpaceOnUse" x1="21" y1="11" x2="21" y2="13">
	<stop  offset="0" style="stop-color:#B721FF"/>
	<stop  offset="1" style="stop-color:#0B2750"/>
</linearGradient>
<circle class="st0" cx="21" cy="12" r="1"/>
<linearGradient id="SVGID_2_" gradientUnits="userSpaceOnUse" x1="17" y1="11" x2="17" y2="16">
	<stop  offset="0" style="stop-color:#B721FF"/>
	<stop  offset="1" style="stop-color:#0B2750"/>
</linearGradient>
<path class="st1" d="M17,11c-0.6,0-1,0.4-1,1v3c0,0.6,0.4,1,1,1s1-0.4,1-1v-3C18,11.4,17.6,11,17,11z"/>
<linearGradient id="SVGID_3_" gradientUnits="userSpaceOnUse" x1="3" y1="4" x2="3" y2="20">
	<stop  offset="0" style="stop-color:#B721FF"/>
	<stop  offset="1" style="stop-color:#0B2750"/>
</linearGradient>
<path class="st2" d="M5,4C4.4,4,4,4.4,4,5v12.8c-0.9-0.3-2-1-2-2.8V9c0-0.6-0.4-1-1-1S0,8.4,0,9v6c0,4,3.3,5,5,5
	c0.1,0,0.3,0,0.4-0.1C5.7,19.8,6,19.4,6,19V5C6,4.4,5.6,4,5,4z"/>
<linearGradient id="SVGID_4_" gradientUnits="userSpaceOnUse" x1="11" y1="0" x2="11" y2="24">
	<stop  offset="0" style="stop-color:#B721FF"/>
	<stop  offset="1" style="stop-color:#0B2750"/>
</linearGradient>
<path class="st3" d="M13,4c-0.6,0-1,0.4-1,1v16c0,0.5-0.2,1-1,1s-1-0.5-1-1V1c0-0.6-0.4-1-1-1S8,0.4,8,1v20c0,1.2,0.8,3,3,3
	s3-1.8,3-3V5C14,4.4,13.6,4,13,4z"/>
<linearGradient id="SVGID_5_" gradientUnits="userSpaceOnUse" x1="17" y1="8" x2="17" y2="10">
	<stop  offset="0" style="stop-color:#B721FF"/>
	<stop  offset="1" style="stop-color:#0B2750"/>
</linearGradient>
<circle class="st4" cx="17" cy="9" r="1"/>
</svg>
